<?xml version="1.0" standalone="no"?>
<!DOCTYPE svg PUBLIC "-//W3C//DTD SVG 20010904//EN"
 "http://www.w3.org/TR/2001/REC-SVG-20010904/DTD/svg10.dtd">
<svg version="1.0" xmlns="http://www.w3.org/2000/svg"
 width="1920.000000pt" height="1200.000000pt" viewBox="0 0 1920.000000 1200.000000"
 preserveAspectRatio="xMidYMid meet">

<g transform="translate(0.000000,1200.000000) scale(0.100000,-0.100000)"
fill="#000000" stroke="none">
<path d="M0 6000 l0 -6000 9600 0 9600 0 0 6000 0 6000 -720 0 -720 0 0 -80 0
-80 40 0 40 0 0 -40 0 -40 40 0 40 0 0 -100 c0 -93 -1 -100 -20 -100 -13 0
-20 7 -20 20 0 13 -7 20 -20 20 -13 0 -20 -7 -20 -20 0 -13 7 -20 20 -20 13 0
20 -7 20 -20 0 -18 7 -20 60 -20 l60 0 0 -40 0 -40 -80 0 c-47 0 -80 -4 -80
-10 0 -5 18 -10 40 -10 33 0 40 -3 40 -20 0 -18 7 -20 80 -20 47 0 80 -4 80
-10 0 -5 -18 -10 -40 -10 l-40 0 0 -160 0 -160 40 0 c34 0 40 -3 40 -22 0 -12
7 -30 17 -40 15 -17 14 -18 -40 -18 l-57 0 0 -80 0 -80 -40 0 -40 0 0 -40 c0
-39 -1 -40 -36 -40 -26 0 -47 -10 -80 -36 -40 -33 -44 -41 -44 -80 l0 -44 -40
0 -40 0 0 -40 c0 -38 -2 -40 -30 -40 -28 0 -30 -2 -30 -40 l0 -40 -50 0 -50 0
0 -40 c0 -38 -2 -40 -30 -40 -28 0 -30 -2 -30 -40 0 -22 -4 -40 -10 -40 -5 0
-10 -11 -10 -25 0 -22 -4 -25 -39 -25 -22 0 -41 5 -43 12 -3 8 -11 5 -25 -9
-26 -26 -21 -73 8 -73 23 0 24 -7 5 -26 -20 -19 -26 -18 -26 6 0 13 -7 20 -20
20 -18 0 -20 -7 -20 -60 l0 -60 -40 0 -40 0 0 -120 0 -120 -30 0 c-28 0 -30
-2 -30 -40 0 -22 -4 -40 -10 -40 -6 0 -10 -33 -10 -80 l0 -80 -40 0 -40 0 0
-97 c0 -92 -1 -95 -18 -80 -10 10 -28 17 -40 17 -27 0 -30 -35 -5 -62 15 -17
15 -18 0 -18 -14 0 -17 -12 -17 -80 l0 -80 -40 0 -40 0 0 -57 c0 -32 -3 -68
-6 -80 -5 -20 -2 -23 20 -23 14 0 26 -3 26 -8 0 -4 15 -16 34 -26 19 -10 37
-25 40 -32 3 -8 15 -14 26 -14 11 0 20 -6 20 -13 0 -12 24 -28 63 -43 9 -3 17
-15 17 -26 0 -21 51 -78 69 -78 6 0 11 -7 11 -17 0 -15 -1 -15 -18 0 -10 10
-28 17 -40 17 -27 0 -30 -35 -5 -62 15 -17 15 -18 0 -18 -13 0 -17 -9 -17 -40
l0 -40 -40 0 -40 0 0 -40 0 -40 -80 0 -80 0 0 -80 0 -80 -40 0 -40 0 0 -57 c0
-54 -1 -55 -18 -40 -10 10 -28 17 -40 17 -27 0 -30 -35 -5 -62 15 -17 14 -18
-40 -18 l-57 0 0 -80 0 -80 -40 0 -40 0 0 -80 0 -80 -40 0 -40 0 0 -40 0 -40
-40 0 -40 0 0 -40 0 -40 -80 0 -80 0 0 -40 0 -40 -40 0 -40 0 0 -40 0 -40 -40
0 -40 0 0 -40 0 -40 -40 0 -40 0 0 -120 0 -120 -40 0 -40 0 0 -40 0 -40 -40 0
-40 0 0 -40 0 -40 -40 0 -40 0 0 -40 0 -40 -40 0 c-36 0 -40 -2 -40 -25 0 -16
-6 -25 -15 -25 -8 0 -15 -7 -15 -15 0 -9 -9 -15 -25 -15 -20 0 -25 -5 -25 -25
0 -16 -6 -25 -15 -25 -8 0 -15 -7 -15 -15 0 -8 7 -15 15 -15 12 0 15 -16 15
-80 l0 -80 -40 0 -40 0 0 -40 0 -40 -40 0 -40 0 0 -40 0 -40 -40 0 -40 0 0
-60 0 -60 40 0 40 0 0 -40 c0 -38 2 -40 30 -40 23 0 30 4 30 20 0 11 5 20 10
20 6 0 10 -9 10 -20 0 -11 -4 -20 -10 -20 -5 0 -10 -9 -10 -20 0 -17 7 -20 50
-20 l50 0 0 -40 0 -40 -40 0 c-22 0 -40 -4 -40 -10 0 -5 18 -10 40 -10 38 0
40 -2 40 -30 0 -28 2 -30 40 -30 l40 0 0 -40 0 -40 40 0 c38 0 40 -2 40 -30 0
-28 2 -30 40 -30 45 0 55 -17 13 -22 l-28 -3 23 -22 c12 -13 33 -23 46 -23 13
0 26 -7 30 -15 7 -18 33 -20 39 -2 3 6 2 -7 0 -30 l-6 -43 42 0 c35 0 41 -3
41 -21 0 -12 12 -33 28 -48 l27 -26 -27 -3 c-43 -5 -33 -22 12 -22 29 0 40 4
40 15 0 8 2 15 4 15 5 0 76 -71 76 -76 0 -13 67 -63 79 -59 14 6 41 -12 41
-26 0 -5 -27 -9 -60 -9 l-60 0 0 -100 c0 -84 -2 -98 -15 -94 -8 4 -15 12 -15
20 0 8 -10 14 -25 14 -18 0 -25 -5 -25 -20 0 -11 7 -23 15 -26 19 -8 19 -34 0
-34 -20 0 -20 -39 0 -46 19 -8 19 -34 0 -34 -12 0 -15 -16 -15 -80 l0 -80 -40
0 c-33 0 -40 -3 -40 -20 0 -13 -5 -18 -15 -14 -8 4 -15 12 -15 20 0 8 -10 14
-25 14 -18 0 -25 -5 -25 -20 0 -11 7 -23 15 -26 8 -4 15 -12 15 -20 0 -8 -7
-14 -15 -14 -8 0 -15 -7 -15 -15 0 -19 -29 -19 -36 0 -4 8 -15 15 -25 15 -10
0 -19 7 -19 15 0 11 -11 15 -40 15 -36 0 -40 3 -40 25 0 25 -1 25 -80 25 l-80
0 0 -28 c0 -15 -5 -33 -12 -40 -9 -9 -9 -12 0 -12 7 0 12 -7 12 -15 0 -11 11
-15 40 -15 36 0 40 -2 40 -25 0 -22 4 -25 40 -25 l40 0 0 -40 c0 -29 4 -40 15
-40 11 0 15 -11 15 -40 0 -29 -4 -40 -15 -40 -8 0 -15 -7 -15 -15 0 -19 14
-19 30 0 21 25 50 19 50 -10 0 -22 4 -25 40 -25 29 0 40 -4 40 -15 0 -8 -7
-15 -15 -15 -11 0 -15 -11 -15 -40 0 -29 4 -40 15 -40 8 0 15 -7 15 -15 0 -11
11 -15 40 -15 l40 0 0 -50 0 -50 40 0 40 0 0 -40 c0 -29 -4 -40 -15 -40 -8 0
-15 -7 -15 -15 0 -8 7 -15 15 -15 10 0 15 -11 15 -35 0 -34 1 -35 40 -35 22 0
40 -4 40 -9 0 -5 -18 -7 -40 -4 -33 5 -40 3 -40 -11 0 -9 6 -16 14 -16 13 0
26 -20 26 -41 0 -5 -16 -9 -35 -9 -34 0 -35 -1 -35 -40 0 -29 4 -40 15 -40 12
0 15 -14 15 -65 0 -51 -3 -65 -15 -65 -8 0 -15 -7 -15 -15 0 -8 -4 -15 -10
-15 -5 0 -10 -18 -10 -40 0 -28 -4 -40 -14 -40 -8 0 -16 5 -18 12 -3 9 -6 9
-12 0 -4 -7 -2 -12 3 -12 6 0 11 -9 11 -20 0 -11 7 -23 15 -26 8 -4 15 -12 15
-20 0 -8 10 -14 25 -14 18 0 25 5 25 20 0 11 -7 23 -15 26 -19 8 -19 34 0 34
8 0 15 -6 15 -14 0 -8 7 -16 15 -20 8 -3 15 -15 15 -26 0 -11 -7 -20 -15 -20
-8 0 -15 -7 -15 -15 0 -20 -39 -20 -46 0 -5 11 -21 15 -60 15 -47 0 -54 2 -54
20 0 23 -10 26 -28 8 -18 -18 -15 -28 8 -28 18 0 20 -7 20 -66 0 -43 -5 -70
-14 -80 -19 -19 -23 -18 -29 6 -3 11 -11 20 -19 19 -10 0 -10 -2 0 -6 17 -7
15 -33 -3 -33 -8 0 -15 -7 -15 -15 0 -11 -11 -15 -40 -15 -22 0 -40 5 -40 10
0 6 -17 10 -37 11 -51 1 -82 13 -63 24 9 5 15 4 18 -3 2 -8 31 -12 83 -12 l79
0 0 30 c0 17 5 30 10 30 6 0 10 5 10 10 0 6 -37 10 -90 10 -73 0 -90 -3 -90
-15 0 -8 -7 -15 -15 -15 -9 0 -18 -7 -21 -15 -4 -8 -15 -15 -25 -15 -10 0 -19
-7 -19 -15 0 -11 -11 -15 -40 -15 -33 0 -40 -3 -40 -20 0 -17 -7 -20 -40 -20
-33 0 -40 -3 -40 -20 0 -18 -7 -20 -59 -20 -102 0 -181 12 -181 26 0 18 -10
18 -32 -3 -16 -14 -56 -17 -313 -21 -268 -4 -295 -3 -295 12 0 9 -4 16 -10 16
-5 0 -10 -4 -10 -10 0 -5 -13 -10 -30 -10 -25 0 -30 -4 -30 -25 0 -25 -1 -25
-79 -25 -56 0 -82 -4 -91 -14 -10 -13 -3 -15 42 -19 29 -2 -2 -4 -69 -5 -101
-2 -123 -5 -123 -17 0 -9 -6 -12 -15 -9 -19 8 -19 34 0 34 8 0 15 7 15 15 0 8
-4 15 -9 15 -5 0 -14 -7 -21 -15 -16 -19 -125 -21 -134 -2 -5 9 -7 9 -12 0 -3
-7 -19 -13 -35 -13 -27 0 -29 -2 -29 -40 l0 -40 -40 0 c-36 0 -40 -2 -40 -25
0 -16 -6 -25 -15 -25 -8 0 -15 -7 -15 -15 0 -9 -9 -15 -25 -15 -23 0 -25 -4
-25 -45 l0 -45 -40 0 c-39 0 -40 -1 -40 -34 l0 -34 -80 -7 c-44 -4 -80 -11
-80 -16 0 -5 -18 -9 -40 -9 -36 0 -40 -2 -40 -25 0 -22 -4 -25 -40 -25 -29 0
-40 -4 -40 -15 0 -13 -24 -15 -160 -15 -100 0 -160 4 -160 10 0 6 -66 10 -179
10 -216 0 -301 7 -301 26 0 18 -14 18 -30 -1 -18 -22 -210 -22 -210 0 0 12
-38 15 -247 17 -137 2 -256 -1 -265 -5 -26 -11 -22 -25 10 -30 15 -2 -29 -4
-98 -3 -84 0 -98 1 -42 3 64 3 82 7 82 18 0 22 -252 22 -270 0 -10 -13 -9 -15
9 -15 12 0 21 -6 21 -15 0 -12 -20 -15 -120 -15 l-120 0 0 -25 c0 -25 -1 -25
-80 -25 -64 0 -80 3 -80 15 0 8 -7 15 -15 15 -8 0 -15 -7 -15 -15 0 -12 -14
-15 -65 -15 -58 0 -65 -2 -65 -20 0 -13 -5 -18 -15 -14 -8 4 -15 12 -15 20 0
11 -16 14 -65 14 l-65 0 0 -40 0 -40 -40 0 c-28 0 -40 4 -40 14 0 11 -20 15
-87 18 -86 3 -123 -3 -123 -22 0 -5 30 -11 68 -13 37 -3 -42 -4 -175 -3 -194
2 -243 -1 -243 -11 0 -10 -21 -13 -80 -13 -64 0 -80 3 -80 15 0 11 -11 15 -40
15 -36 0 -40 -2 -40 -25 0 -22 -4 -25 -40 -25 -22 0 -40 5 -40 10 0 6 -18 10
-40 10 -22 0 -40 -4 -40 -10 0 -5 -18 -10 -40 -10 -33 0 -40 -3 -40 -20 0 -18
-7 -20 -80 -20 -47 0 -80 -4 -80 -10 0 -6 -45 -10 -115 -10 -114 0 -175 -14
-175 -40 0 -6 -7 -10 -15 -10 -8 0 -15 7 -15 15 0 8 -7 15 -15 15 -8 0 -15 -7
-15 -15 0 -12 -14 -15 -65 -15 -51 0 -65 3 -65 15 0 22 -172 22 -190 0 -11
-13 -4 -15 51 -17 35 -1 6 -4 -66 -7 -71 -4 -134 -3 -139 1 -6 5 16 8 47 8 44
0 57 3 57 15 0 13 -20 15 -120 15 l-120 0 0 25 0 25 -120 -7 c-118 -6 -120 -6
-120 15 0 21 -5 22 -80 22 -47 0 -80 4 -80 10 0 6 -33 10 -80 10 -47 0 -80 4
-80 10 0 6 -33 10 -80 10 -73 0 -80 2 -80 20 0 11 -7 20 -15 20 -8 0 -15 -7
-15 -15 0 -9 -9 -15 -24 -15 -13 0 -26 -6 -29 -12 -4 -10 -7 -10 -18 0 -11 10
-10 12 4 12 9 0 17 7 17 15 0 12 -16 15 -80 15 -47 0 -80 4 -80 10 0 6 -18 10
-40 10 -22 0 -40 4 -40 9 0 5 -36 12 -80 16 -58 5 -80 11 -80 21 0 11 -18 14
-80 14 -50 0 -80 4 -80 11 0 6 -30 10 -82 9 -110 -2 -108 -2 -108 14 0 11 -33
13 -182 12 -108 0 -186 -5 -190 -11 -5 -6 -12 -5 -20 3 -9 9 -9 12 5 12 9 0
17 7 17 15 0 11 -11 15 -40 15 -22 0 -40 5 -40 10 0 6 -18 10 -40 10 -22 0
-40 5 -40 10 0 6 -18 10 -40 10 -33 0 -40 3 -40 20 0 16 -7 20 -34 20 -45 0
-96 19 -96 36 0 10 -14 14 -55 14 -42 0 -55 3 -55 15 0 19 -14 19 -30 0 -10
-13 -9 -15 9 -15 12 0 21 -6 21 -15 0 -11 -11 -15 -40 -15 -29 0 -40 4 -40 15
0 13 -17 14 -120 8 -118 -6 -120 -6 -120 15 0 19 -6 22 -40 22 -22 0 -40 5
-40 10 0 6 -18 10 -39 10 -22 0 -46 7 -55 15 -8 8 -26 15 -40 15 -16 0 -26 6
-26 15 0 11 -11 15 -40 15 -36 0 -40 3 -40 25 0 23 -4 25 -40 25 -29 0 -40 -4
-40 -15 0 -11 -11 -15 -40 -15 -22 0 -40 4 -40 9 0 6 -19 12 -42 14 l-43 4 43
1 c30 1 42 6 42 17 0 12 -17 15 -89 15 -68 0 -93 4 -105 16 -9 8 -16 20 -16
25 0 5 -7 9 -15 9 -8 0 -15 -5 -15 -12 0 -9 -3 -9 -12 0 -7 7 -22 12 -35 12
-24 0 -113 78 -113 99 0 8 -17 11 -51 10 -45 -2 -55 1 -75 24 -13 15 -29 27
-37 27 -7 0 -24 11 -37 25 -15 16 -30 23 -41 20 -12 -4 -23 1 -31 14 -7 12
-19 21 -26 21 -7 0 -31 18 -53 40 -45 45 -49 46 -49 25 0 -24 -13 -18 -44 21
-20 26 -31 32 -36 23 -6 -9 -17 -4 -41 20 -22 23 -34 29 -39 20 -4 -6 -13 -8
-19 -5 -6 4 -9 11 -6 15 8 13 -41 52 -57 46 -10 -4 -23 3 -33 17 -11 15 -19
19 -22 11 -8 -22 -23 -14 -23 11 0 16 -7 27 -19 31 -11 3 -23 15 -26 26 -7 20
-35 27 -35 8 0 -5 -19 10 -43 35 -36 39 -49 46 -82 47 -22 1 -32 3 -22 6 23 6
25 83 2 83 -8 0 -15 -9 -15 -20 0 -11 -4 -20 -9 -20 -19 0 -41 45 -41 82 0 27
-4 38 -15 38 -9 0 -15 -9 -15 -21 0 -24 -23 -21 -28 4 -2 10 3 17 12 17 20 0
21 39 1 46 -8 4 -15 12 -15 20 0 8 -10 14 -25 14 -18 0 -25 -5 -25 -20 0 -11
7 -23 15 -26 8 -4 15 -12 15 -20 0 -8 -7 -14 -15 -14 -8 0 -15 8 -15 18 0 9
-9 23 -20 30 -11 7 -20 17 -20 22 0 6 9 10 20 10 17 0 20 7 20 40 0 36 -2 40
-25 40 -22 0 -25 4 -25 40 l0 40 -54 0 c-33 0 -56 -5 -58 -12 -3 -9 -6 -9 -12
0 -4 7 -2 12 3 12 6 0 11 5 11 10 0 6 9 19 20 30 30 30 24 40 -25 40 l-45 0 0
40 0 40 -55 0 c-59 0 -67 8 -35 40 30 30 24 40 -25 40 l-45 0 0 40 c0 28 -4
40 -14 40 -8 0 -16 -6 -19 -12 -2 -8 -8 -9 -13 -4 -5 5 -4 11 4 13 7 3 12 22
12 44 0 39 0 39 40 39 l40 0 0 40 c0 36 -2 40 -25 40 -22 0 -25 4 -25 40 0 28
-4 40 -14 40 -8 0 -17 -6 -19 -12 -9 -22 -27 14 -27 55 0 26 4 37 15 37 8 0
15 9 15 20 0 11 -7 23 -15 26 -8 4 -15 12 -15 20 0 8 -10 14 -25 14 -22 0 -25
4 -25 40 l0 40 40 0 40 0 0 55 0 55 35 0 c38 0 95 24 95 40 0 6 -11 10 -25 10
-16 0 -25 6 -25 15 0 8 -6 15 -14 15 -13 0 -26 20 -26 41 0 5 9 9 20 9 18 0
20 7 20 66 l0 67 50 -5 c70 -7 81 4 67 65 -6 26 -17 47 -24 47 -7 0 -13 9 -13
20 0 13 7 20 20 20 16 0 20 -7 20 -34 0 -19 4 -38 10 -41 6 -3 10 3 10 14 0
12 5 21 10 21 6 0 10 9 10 20 0 13 -7 20 -20 20 -13 0 -20 7 -20 20 0 18 -16
26 -44 21 -5 -1 -20 8 -33 21 -14 13 -34 23 -46 23 -20 0 -22 4 -18 55 2 30 8
59 15 63 6 4 -7 5 -29 1 -22 -4 -43 -11 -46 -17 -4 -6 -9 -5 -13 1 -3 6 -2 12
3 14 5 1 11 21 13 43 l3 40 -40 -3 c-22 -2 -43 -8 -46 -14 -4 -7 -9 -7 -13 0
-3 6 -2 12 3 14 4 1 11 21 14 43 4 24 3 32 -2 21 -12 -30 -26 0 -22 48 1 21
-2 42 -8 46 -7 3 -14 24 -17 46 -4 36 -4 37 7 14 12 -25 12 -25 16 -2 4 19 10
22 54 22 27 0 49 5 49 10 0 6 18 10 40 10 22 0 40 5 40 10 0 6 9 10 20 10 13
0 20 -7 20 -20 0 -13 7 -20 20 -20 13 0 20 7 20 20 0 13 -7 20 -20 20 -18 0
-20 7 -20 60 0 53 2 60 20 60 11 0 20 5 20 10 0 6 -18 10 -39 10 -30 0 -46 7
-69 30 -17 17 -35 30 -41 30 -6 0 -11 5 -11 11 0 14 -55 69 -69 69 -6 0 -11 9
-11 20 0 12 -7 20 -16 20 -9 0 -18 9 -21 20 -3 11 -14 20 -24 20 -15 0 -19 7
-19 40 0 36 -2 40 -25 40 -22 0 -25 4 -25 40 0 39 -1 40 -34 40 -31 0 -34 3
-41 36 -3 20 -4 39 -1 42 3 3 6 -4 6 -16 0 -12 5 -22 10 -22 6 0 10 7 10 16 0
8 6 22 14 30 17 16 46 19 46 4 0 -5 9 -10 20 -10 11 0 20 5 20 10 0 6 -9 10
-20 10 -16 0 -20 7 -20 30 0 23 -4 30 -20 30 -15 0 -20 7 -20 25 0 14 -4 25
-10 25 -5 0 -10 7 -10 15 0 19 96 22 102 3 3 -9 6 -9 12 0 4 7 2 12 -3 12 -6
0 -11 18 -11 40 0 36 -2 40 -25 40 -22 0 -25 4 -25 40 0 29 -4 40 -15 40 -9 0
-15 9 -15 25 0 14 -4 25 -10 25 -5 0 -10 25 -10 55 0 54 0 55 -30 55 -16 0
-30 5 -30 11 0 6 -13 24 -30 40 -22 22 -36 29 -52 25 -13 -3 -17 -3 -10 0 17
8 15 44 -3 44 -8 0 -15 9 -15 20 0 15 -7 20 -25 20 -22 0 -25 4 -25 40 0 33
-3 40 -20 40 -17 0 -20 7 -20 40 0 38 -2 40 -30 40 -28 0 -30 2 -30 40 0 38
-2 40 -30 40 -29 0 -30 1 -30 50 0 43 -3 50 -20 50 -11 0 -20 -4 -20 -10 0 -5
-9 -10 -20 -10 -11 0 -20 5 -20 10 0 6 9 10 20 10 16 0 20 7 20 30 0 23 -4 30
-20 30 -17 0 -20 7 -20 40 l0 40 -40 0 -40 0 0 80 0 80 -40 0 -40 0 0 60 c0
53 -2 60 -20 60 -13 0 -20 7 -20 20 0 13 -7 20 -20 20 -13 0 -20 7 -20 20 0
13 -7 20 -20 20 -13 0 -20 7 -20 20 0 13 -7 20 -20 20 -13 0 -20 -7 -20 -20 0
-13 7 -20 20 -20 13 0 20 -7 20 -20 0 -13 -7 -20 -20 -20 -12 0 -20 7 -20 16
0 22 -41 64 -62 64 -14 0 -18 9 -18 40 0 40 0 40 -39 40 -23 0 -41 -5 -44 -12
-3 -10 -10 -10 -30 1 -22 12 -27 21 -27 53 0 21 -4 38 -9 38 -5 0 -9 23 -8 50
0 41 3 50 18 50 9 0 19 -5 21 -11 2 -6 17 -9 33 -7 l30 5 -32 8 c-28 6 -33 12
-33 36 0 26 -3 28 -42 32 -35 3 -39 5 -21 11 12 5 23 18 25 29 2 12 14 27 27
34 14 6 39 28 57 47 18 20 38 36 43 36 6 0 11 18 11 40 0 22 5 40 10 40 6 0
10 18 10 40 l0 40 -40 0 c-22 0 -40 5 -40 10 0 6 18 10 40 10 22 0 40 -4 40
-10 0 -5 9 -10 20 -10 18 0 20 7 20 80 0 73 2 80 20 80 13 0 20 -7 20 -20 0
-17 7 -20 40 -20 33 0 40 3 40 20 0 17 -7 20 -40 20 -35 0 -40 3 -40 23 0 29
-29 57 -58 57 -19 0 -22 6 -22 40 l0 40 40 0 40 0 0 60 c0 47 -3 60 -15 60 -8
0 -15 9 -15 20 0 11 7 20 15 20 13 0 15 20 15 120 l0 120 -40 0 -40 0 0 40 0
40 -40 0 -40 0 0 65 0 65 55 0 c42 0 55 3 55 15 0 8 -7 15 -15 15 -11 0 -15
11 -15 40 0 22 -4 40 -10 40 -5 0 -10 18 -10 40 0 38 -2 40 -30 40 -28 0 -30
2 -30 40 0 33 3 40 20 40 18 0 20 7 20 80 0 73 -2 80 -20 80 -17 0 -20 -7 -20
-40 l0 -40 -40 0 c-34 0 -40 3 -40 22 0 12 -7 30 -17 40 -15 17 -15 18 0 18
15 0 17 15 17 120 l0 120 -40 0 -40 0 0 40 c0 22 -4 40 -10 40 -6 0 -10 33
-10 80 0 47 -4 80 -10 80 -5 0 -10 18 -10 40 0 33 3 40 20 40 19 0 20 7 20
160 l0 160 -40 0 c-22 0 -40 5 -40 10 0 6 16 10 36 10 50 0 79 37 75 97 -2 40
-1 43 23 43 l26 0 0 130 c0 123 1 130 20 130 11 0 20 -4 20 -10 0 -5 9 -10 20
-10 11 0 20 5 20 10 0 6 -9 10 -20 10 -16 0 -20 7 -20 30 0 21 -5 30 -16 30
-9 0 -35 16 -58 35 -24 19 -46 32 -49 28 -4 -3 -7 -1 -7 5 0 7 -11 12 -25 12
-22 0 -25 4 -25 40 0 22 -4 40 -10 40 -5 0 -10 -9 -10 -20 0 -11 -5 -20 -10
-20 -6 0 -18 9 -27 20 -17 20 -30 20 -990 20 l-973 0 0 -6000z m18160 5024 c0
-14 -3 -14 -15 -4 -8 7 -15 14 -15 16 0 2 7 4 15 4 8 0 15 -7 15 -16z m-300
-369 c0 -8 -4 -15 -10 -15 -5 0 -10 7 -10 15 0 8 5 15 10 15 6 0 10 -7 10 -15z
m-15760 -240 c10 -12 10 -15 -4 -15 -9 0 -16 7 -16 15 0 8 2 15 4 15 2 0 9 -7
16 -15z m240 -1120 c10 -12 10 -15 -4 -15 -9 0 -16 7 -16 15 0 8 2 15 4 15 2
0 9 -7 16 -15z m-180 -680 c0 -28 -24 -34 -34 -9 -10 26 -7 34 14 34 15 0 20
-7 20 -25z m0 -71 c0 -9 -7 -14 -17 -12 -25 5 -28 28 -4 28 12 0 21 -6 21 -16z
m360 -204 c0 -13 -7 -20 -20 -20 -13 0 -20 7 -20 20 0 13 7 20 20 20 13 0 20
-7 20 -20z m40 -190 c0 -5 -2 -10 -4 -10 -3 0 -8 5 -11 10 -3 6 -1 10 4 10 6
0 11 -4 11 -10z m320 -560 c0 -5 -4 -10 -10 -10 -5 0 -10 5 -10 10 0 6 5 10
10 10 6 0 10 -4 10 -10z m640 -1840 c0 -5 -4 -10 -10 -10 -5 0 -10 5 -10 10 0
6 5 10 10 10 6 0 10 -4 10 -10z m-60 -60 c0 -5 -4 -10 -10 -10 -5 0 -10 5 -10
10 0 6 5 10 10 10 6 0 10 -4 10 -10z m12860 -260 c0 -5 -4 -10 -10 -10 -5 0
-10 5 -10 10 0 6 5 10 10 10 6 0 10 -4 10 -10z m-60 -60 c0 -5 -4 -10 -10 -10
-5 0 -10 5 -10 10 0 6 5 10 10 10 6 0 10 -4 10 -10z m-100 -110 c0 -13 -5 -18
-15 -14 -8 4 -15 12 -15 20 0 8 7 14 15 14 8 0 15 -9 15 -20z m-12770 -126 c0
-8 -7 -14 -15 -14 -8 0 -15 9 -15 20 0 13 5 18 15 14 8 -4 15 -12 15 -20z
m-10 -164 c0 -5 -4 -10 -10 -10 -5 0 -10 5 -10 10 0 6 5 10 10 10 6 0 10 -4
10 -10z m0 -236 c0 -3 -7 -12 -15 -21 -20 -19 -32 -10 -14 11 14 15 29 21 29
10z m12568 -146 c18 -18 15 -28 -8 -28 -13 0 -20 7 -20 20 0 23 10 26 28 8z
m-12188 -198 c0 -5 -2 -10 -4 -10 -3 0 -8 5 -11 10 -3 6 -1 10 4 10 6 0 11 -4
11 -10z m560 -540 c0 -5 -2 -10 -4 -10 -3 0 -8 5 -11 10 -3 6 -1 10 4 10 6 0
11 -4 11 -10z m640 -346 c0 -17 -22 -14 -28 4 -2 7 3 12 12 12 9 0 16 -7 16
-16z m9150 -130 c0 -8 -7 -14 -15 -14 -8 0 -15 9 -15 20 0 13 5 18 15 14 8 -4
15 -12 15 -20z m-110 -24 c0 -5 -4 -10 -10 -10 -5 0 -10 5 -10 10 0 6 5 10 10
10 6 0 10 -4 10 -10z m-60 -60 c0 -5 -4 -10 -10 -10 -5 0 -10 5 -10 10 0 6 5
10 10 10 6 0 10 -4 10 -10z m-8320 -80 c0 -5 -4 -10 -10 -10 -5 0 -10 5 -10
10 0 6 5 10 10 10 6 0 10 -4 10 -10z m670 -93 c33 -4 33 -4 -7 -5 -35 -2 -43
1 -43 16 0 11 3 13 8 5 4 -6 23 -13 42 -16z m5630 -93 c0 -9 -7 -14 -17 -12
-25 5 -28 28 -4 28 12 0 21 -6 21 -16z m80 6 c0 -5 -4 -10 -9 -10 -6 0 -13 5
-16 10 -3 6 1 10 9 10 9 0 16 -4 16 -10z m-5010 -56 c0 -8 -7 -14 -15 -14 -8
0 -15 9 -15 20 0 13 5 18 15 14 8 -4 15 -12 15 -20z m3920 -80 c0 -8 -7 -14
-15 -14 -8 0 -15 9 -15 20 0 13 5 18 15 14 8 -4 15 -12 15 -20z"/>
<path d="M2160 11990 c0 -5 18 -10 40 -10 22 0 40 5 40 10 0 6 -18 10 -40 10
-22 0 -40 -4 -40 -10z"/>
<path d="M2160 11430 c0 -5 18 -10 40 -10 22 0 40 5 40 10 0 6 -18 10 -40 10
-22 0 -40 -4 -40 -10z"/>
<path d="M2080 10859 c0 -18 2 -19 15 -9 8 7 15 16 15 21 0 5 -7 9 -15 9 -9 0
-15 -9 -15 -21z"/>
<path d="M17280 10150 c0 -5 5 -10 10 -10 6 0 10 5 10 10 0 6 -4 10 -10 10 -5
0 -10 -4 -10 -10z"/>
<path d="M2370 10015 c0 -8 7 -15 15 -15 8 0 15 7 15 15 0 8 -7 15 -15 15 -8
0 -15 -7 -15 -15z"/>
<path d="M16940 9855 c-10 -12 -10 -15 4 -15 9 0 16 7 16 15 0 8 -2 15 -4 15
-2 0 -9 -7 -16 -15z"/>
<path d="M2480 9720 c0 -22 5 -40 10 -40 6 0 10 18 10 40 0 22 -4 40 -10 40
-5 0 -10 -18 -10 -40z"/>
<path d="M2400 9029 c0 -5 5 -7 10 -4 6 3 10 8 10 11 0 2 -4 4 -10 4 -5 0 -10
-5 -10 -11z"/>
<path d="M16767 9029 c8 -8 19 -8 40 -1 28 10 28 10 -11 11 -29 1 -37 -2 -29
-10z"/>
<path d="M3200 7400 c0 -22 5 -40 10 -40 6 0 10 18 10 40 0 22 -4 40 -10 40
-5 0 -10 -18 -10 -40z"/>
<path d="M15890 7380 c0 -11 7 -20 15 -20 8 0 15 9 15 20 0 11 -7 20 -15 20
-8 0 -15 -9 -15 -20z"/>
<path d="M3280 7345 c0 -8 5 -15 10 -15 6 0 10 7 10 15 0 8 -4 15 -10 15 -5 0
-10 -7 -10 -15z"/>
<path d="M3345 7050 c-3 -5 -1 -10 4 -10 6 0 11 5 11 10 0 6 -2 10 -4 10 -3 0
-8 -4 -11 -10z"/>
<path d="M15600 6945 c0 -8 7 -15 15 -15 8 0 15 7 15 15 0 8 -7 15 -15 15 -8
0 -15 -7 -15 -15z"/>
<path d="M15520 6865 c0 -8 7 -15 15 -15 8 0 15 7 15 15 0 8 -7 15 -15 15 -8
0 -15 -7 -15 -15z"/>
<path d="M15360 6704 c0 -14 3 -14 15 -4 8 7 15 14 15 16 0 2 -7 4 -15 4 -8 0
-15 -7 -15 -16z"/>
<path d="M15420 6655 c-10 -12 -10 -15 4 -15 9 0 16 7 16 15 0 8 -2 15 -4 15
-2 0 -9 -7 -16 -15z"/>
<path d="M3440 6265 c0 -14 5 -25 10 -25 6 0 10 11 10 25 0 14 -4 25 -10 25
-5 0 -10 -11 -10 -25z"/>
<path d="M3680 5620 c0 -11 5 -20 10 -20 6 0 10 9 10 20 0 11 -4 20 -10 20 -5
0 -10 -9 -10 -20z"/>
<path d="M3520 5349 c0 -5 5 -7 10 -4 6 3 10 8 10 11 0 2 -4 4 -10 4 -5 0 -10
-5 -10 -11z"/>
<path d="M3585 5290 c-3 -5 -1 -10 4 -10 6 0 11 5 11 10 0 6 -2 10 -4 10 -3 0
-8 -4 -11 -10z"/>
<path d="M15520 5029 c0 -5 5 -7 10 -4 6 3 10 8 10 11 0 2 -4 4 -10 4 -5 0
-10 -5 -10 -11z"/>
<path d="M16000 4385 c0 -8 7 -15 15 -15 8 0 15 7 15 15 0 8 -7 15 -15 15 -8
0 -15 -7 -15 -15z"/>
<path d="M15920 3989 c0 -5 5 -7 10 -4 6 3 10 8 10 11 0 2 -4 4 -10 4 -5 0
-10 -5 -10 -11z"/>
<path d="M16000 3985 c0 -8 7 -15 15 -15 8 0 15 7 15 15 0 8 -7 15 -15 15 -8
0 -15 -7 -15 -15z"/>
<path d="M15985 3930 c-3 -5 -1 -10 4 -10 6 0 11 5 11 10 0 6 -2 10 -4 10 -3
0 -8 -4 -11 -10z"/>
<path d="M15920 3909 c0 -5 5 -7 10 -4 6 3 10 8 10 11 0 2 -4 4 -10 4 -5 0
-10 -5 -10 -11z"/>
<path d="M4641 3744 c0 -11 3 -14 6 -6 3 7 2 16 -1 19 -3 4 -6 -2 -5 -13z"/>
<path d="M4698 3683 c7 -3 16 -2 19 1 4 3 -2 6 -13 5 -11 0 -14 -3 -6 -6z"/>
<path d="M15883 3666 c1 -11 9 -21 17 -23 10 -3 11 -2 4 4 -6 4 -14 15 -17 23
-5 11 -6 9 -4 -4z"/>
<path d="M4860 3610 c0 -5 5 -10 10 -10 6 0 10 5 10 10 0 6 -4 10 -10 10 -5 0
-10 -4 -10 -10z"/>
<path d="M14240 3509 c0 -5 5 -7 10 -4 6 3 10 8 10 11 0 2 -4 4 -10 4 -5 0
-10 -5 -10 -11z"/>
<path d="M13760 3345 c0 -8 7 -15 15 -15 8 0 15 7 15 15 0 8 -7 15 -15 15 -8
0 -15 -7 -15 -15z"/>
<path d="M5840 3265 c0 -8 7 -15 15 -15 8 0 15 7 15 15 0 8 -7 15 -15 15 -8 0
-15 -7 -15 -15z"/>
<path d="M5890 3215 c0 -12 13 -15 55 -15 42 0 55 3 55 15 0 12 -13 15 -55 15
-42 0 -55 -3 -55 -15z"/>
<path d="M6720 3105 c0 -8 7 -15 15 -15 8 0 15 7 15 15 0 8 -7 15 -15 15 -8 0
-15 -7 -15 -15z"/>
<path d="M6770 3055 c0 -8 7 -15 15 -15 8 0 15 7 15 15 0 8 -7 15 -15 15 -8 0
-15 -7 -15 -15z"/>
<path d="M12690 3055 c-10 -13 -9 -15 9 -15 12 0 21 6 21 15 0 8 -4 15 -9 15
-5 0 -14 -7 -21 -15z"/>
<path d="M7020 3050 c0 -5 5 -10 10 -10 6 0 10 5 10 10 0 6 -4 10 -10 10 -5 0
-10 -4 -10 -10z"/>
<path d="M10940 3050 c0 -5 5 -10 10 -10 6 0 10 5 10 10 0 6 -4 10 -10 10 -5
0 -10 -4 -10 -10z"/>
<path d="M11040 3025 c0 -8 7 -15 15 -15 8 0 15 7 15 15 0 8 -7 15 -15 15 -8
0 -15 -7 -15 -15z"/>
<path d="M7760 2945 c0 -8 7 -15 15 -15 8 0 15 7 15 15 0 8 -7 15 -15 15 -8 0
-15 -7 -15 -15z"/>
<path d="M10320 2895 c0 -12 16 -15 80 -15 64 0 80 3 80 15 0 12 -16 15 -80
15 -64 0 -80 -3 -80 -15z"/>
<path d="M9490 2815 c-11 -13 -5 -15 49 -15 48 0 61 3 61 15 0 11 -12 15 -49
15 -31 0 -53 -5 -61 -15z"/>
<path d="M9120 2785 c0 -8 7 -15 15 -15 8 0 15 7 15 15 0 8 -7 15 -15 15 -8 0
-15 -7 -15 -15z"/>
</g>
</svg>
